<svg version="1.1" viewBox="0.0 0.0 960.0 720.0" fill="none" stroke="none" stroke-linecap="square" stroke-miterlimit="10" xmlns:xlink="http://www.w3.org/1999/xlink" xmlns="http://www.w3.org/2000/svg"><clipPath id="p.0"><path d="m0 0l960.0 0l0 720.0l-960.0 0l0 -720.0z" clip-rule="nonzero"/></clipPath><g clip-path="url(#p.0)"><path fill="#000000" fill-opacity="0.0" d="m0 0l960.0 0l0 720.0l-960.0 0z" fill-rule="evenodd"/><path fill="#434343" d="m389.5307 0l180.94489 0l0 382.33072l-180.94489 0z" fill-rule="evenodd"/><path stroke="#999999" stroke-width="4.0" stroke-linejoin="round" stroke-linecap="butt" d="m389.5307 0l180.94489 0l0 382.33072l-180.94489 0z" fill-rule="evenodd"/><path fill="#00b0e1" d="m273.1181 359.99973l0 0c0 -114.257706 92.624176 -206.88188 206.8819 -206.88188l0 0c54.86847 0 107.489685 21.796417 146.2876 60.5943c38.79785 38.797882 60.5943 91.41911 60.5943 146.28758l0 0c0 114.25772 -92.62421 206.88187 -206.8819 206.88187l0 0c-114.25772 0 -206.8819 -92.624146 -206.8819 -206.88187z" fill-rule="evenodd"/><path stroke="#0083a8" stroke-width="24.0" stroke-linejoin="round" stroke-linecap="butt" d="m273.1181 359.99973l0 0c0 -114.257706 92.624176 -206.88188 206.8819 -206.88188l0 0c54.86847 0 107.489685 21.796417 146.2876 60.5943c38.79785 38.797882 60.5943 91.41911 60.5943 146.28758l0 0c0 114.25772 -92.62421 206.88187 -206.8819 206.88187l0 0c-114.25772 0 -206.8819 -92.624146 -206.8819 -206.88187z" fill-rule="evenodd"/></g></svg>